<svg xmlns="http://www.w3.org/2000/svg" width="1200" height="360" viewBox="0 0 1200 360" role="img" aria-label="GigFlow Marketplace">
  <defs>
    <linearGradient id="bg" x1="0" y1="0" x2="1" y2="1">
      <stop offset="0" stop-color="#111827"/>
      <stop offset="1" stop-color="#0b1220"/>
    </linearGradient>
    <linearGradient id="accent" x1="0" y1="0" x2="1" y2="0">
      <stop offset="0" stop-color="#22c55e"/>
      <stop offset="1" stop-color="#06b6d4"/>
    </linearGradient>
  </defs>
  <rect width="1200" height="360" fill="url(#bg)"/>
  <circle cx="1040" cy="120" r="120" fill="#1f2937" opacity="0.55"/>
  <circle cx="1020" cy="120" r="70" fill="url(#accent)" opacity="0.25"/>
  <circle cx="140" cy="300" r="120" fill="#1f2937" opacity="0.35"/>

  <g transform="translate(96,88)">
    <rect x="0" y="0" width="84" height="84" rx="18" fill="url(#accent)" opacity="0.9"/>
    <path d="M22 44h40" stroke="#0b1220" stroke-width="8" stroke-linecap="round"/>
    <path d="M22 30h40" stroke="#0b1220" stroke-width="8" stroke-linecap="round" opacity="0.85"/>
    <path d="M22 58h28" stroke="#0b1220" stroke-width="8" stroke-linecap="round" opacity="0.7"/>

    <text x="108" y="34" fill="#e5e7eb" font-family="ui-sans-serif, system-ui, -apple-system, Segoe UI, Roboto" font-size="44" font-weight="800">GigFlow Marketplace</text>
    <text x="108" y="76" fill="#9ca3af" font-family="ui-sans-serif, system-ui, -apple-system, Segoe UI, Roboto" font-size="18" font-weight="500">A Vite + React marketplace for gigs & bids (Express + MongoDB backend).</text>

    <g transform="translate(108,108)">
      <rect x="0" y="0" width="152" height="38" rx="10" fill="#111827" stroke="#374151"/>
      <text x="16" y="25" fill="#e5e7eb" font-family="ui-sans-serif, system-ui" font-size="14" font-weight="600">Auth • Gigs • Bids</text>

      <rect x="168" y="0" width="168" height="38" rx="10" fill="#111827" stroke="#374151"/>
      <text x="184" y="25" fill="#e5e7eb" font-family="ui-sans-serif, system-ui" font-size="14" font-weight="600">MongoDB • CORS Ready</text>

      <rect x="352" y="0" width="190" height="38" rx="10" fill="#111827" stroke="#374151"/>
      <text x="368" y="25" fill="#e5e7eb" font-family="ui-sans-serif, system-ui" font-size="14" font-weight="600">shadcn/ui • Tailwind</text>
    </g>
  </g>
</svg>
